<svg width="241" height="123" viewBox="0 0 241 123" fill="none" xmlns="http://www.w3.org/2000/svg">
<path d="M28.6734 54.629C27.2977 52.5703 22.5235 43.6637 19.3313 43.6637C13.7845 43.6637 9.75172 51.4095 6.99733 55.1468C-1.6457 66.8742 4.4864 87.4452 18.1101 92.764C23.0037 94.6744 28.8921 92.9725 32.9475 89.718C35.8435 87.3941 37.0906 83.1187 38.2902 79.7883C40.3869 73.9675 42.5586 67.803 43.755 61.726C43.8156 61.4186 43.8747 61.1109 43.9324 60.803M43.9324 60.803C45.8198 50.7397 46.2593 40.429 47.6323 30.2921C48.3782 24.7851 47.1782 29.8308 46.9301 32.4547C46.2439 39.7119 45.303 46.9411 44.6099 54.2026C44.3999 56.4025 44.1673 58.6025 43.9324 60.803ZM43.9324 60.803C43.5727 64.1728 43.2075 67.544 42.9092 70.9186M42.9092 70.9186C42.7037 73.2438 42.5299 75.5707 42.4117 77.8999C42.1408 83.2378 40.8661 88.5182 40.7634 93.847M42.9092 70.9186C42.1955 75.6916 41.5736 80.4746 41.099 85.2101C40.8107 88.0864 40.7669 90.9613 40.7634 93.847M42.9092 70.9186C43.6778 65.7781 44.5527 60.6492 45.4647 55.6037C45.9185 53.093 49.4728 41.8426 52.517 49.786C55.7789 58.2973 55.6005 68.5726 55.6005 77.5344C55.6005 82.0583 54.7351 86.7483 55.0815 91.241C55.3904 95.2474 58.6339 89.3382 59.0199 88.4997C63.3887 79.0073 67.7251 68.0994 68.6212 57.443M40.7634 93.847C40.7633 93.8515 40.7632 93.856 40.7631 93.8605C40.7585 94.1058 40.7631 95.541 40.7631 94.2869C40.7631 94.1402 40.7632 93.9936 40.7634 93.847ZM68.6212 57.443C68.7312 56.1347 68.7894 54.8302 68.7894 53.5325C68.7894 51.5104 69.3389 49.6311 69.3389 47.6234C69.3389 47.443 68.5096 52.6471 68.2398 53.9589C68.0709 54.7806 66.7178 58.1465 68.0261 57.6445C68.223 57.569 68.4214 57.5022 68.6212 57.443ZM68.6212 57.443C70.7404 56.8147 73.0078 57.0309 75.1395 56.5175C77.4872 55.9521 80.1006 55.2621 82.1003 53.8371C82.1608 53.794 82.2248 53.7444 82.2917 53.6892M82.2917 53.6892C83.6303 52.5846 86.1204 49.2273 84.909 50.0906C83.6671 50.9756 82.8797 52.2728 82.2917 53.6892ZM82.2917 53.6892C81.6539 55.2256 81.2508 56.9022 80.757 58.3451C79.4891 62.0496 78.0225 65.7702 76.584 69.4193L76.4828 69.6759C75.2486 72.8071 72.8684 76.8978 73.2162 80.3671C73.4328 82.5286 74.8733 82.3806 76.4828 83.1388C83.2106 86.3085 86.8648 77.708 89.3804 70.8429M89.3804 70.8429C90.2089 68.5818 90.9139 66.509 91.5645 65.107C93.5044 60.9263 94.9185 56.8572 95.7165 52.3141C95.8696 51.4429 97.2143 44.8338 95.9608 48.0499C94.4078 52.0339 93.8232 56.5328 92.5414 60.66C91.4749 64.0939 90.316 67.432 89.3804 70.8429ZM89.3804 70.8429C88.8288 72.8538 88.3548 74.89 88.023 76.9861C87.9035 77.7414 86.0606 85.4282 87.5651 85.2405C91.3665 84.7665 95.9646 82.0326 97.9146 78.8441C102.512 71.3266 104.551 62.1473 106.707 53.7153C106.99 52.6093 107.953 45.9216 109.577 45.8568C116.096 45.5966 104.247 69.1112 102.983 71.3816C100.068 76.6165 94.7608 87.525 87.443 87.525C84.8089 87.525 83.3381 86.3505 81.0012 85.4537C80.1482 85.1264 83.0904 86.8933 83.6268 87.2204C86.264 88.8283 89.6358 87.5384 92.4193 86.9767C97.9662 85.8575 103.304 84.7795 107.012 80.032C107.378 79.5635 107.719 79.0779 108.036 78.5781M108.036 78.5781C110.061 75.3933 111.179 71.6345 112.325 68.092C114.581 61.1147 116.096 54.0878 117.454 46.8924C119.535 35.8639 122.094 25.1556 122.094 13.8746C122.094 11.1148 121.891 8.39743 121.667 5.65065C121.577 4.55585 121.697 1.03757 120.934 4.46274C119.156 12.4458 118.336 20.6877 116.904 28.7387C114.469 42.4311 111.753 56.0703 109.516 69.7977C109.044 72.6936 108.538 75.6242 108.036 78.5781ZM108.036 78.5781C106.012 90.4925 104.051 102.784 104.631 114.695C104.658 115.253 104.568 120.188 105.73 119.994C107.932 119.628 109.691 117.018 110.676 115.304C116.28 105.553 120.301 94.13 123.346 83.3521C124.12 80.6126 124.76 77.8444 125.217 75.0521M125.217 75.0521C125.871 71.0609 126.151 67.0205 125.91 62.9444C125.752 60.2587 125.345 59.7836 124.964 62.7312C124.478 66.485 124.539 70.8841 125.147 74.6103C125.171 74.7572 125.194 74.9047 125.217 75.0521ZM125.217 75.0521C125.57 77.2999 125.898 79.542 128.383 79.9711C131.175 80.4532 134.247 80.283 136.68 78.6831M136.68 78.6831C136.955 78.5017 137.223 78.3019 137.481 78.0826C140.818 75.2466 141.656 69.4941 142.091 65.4116C142.403 62.4908 141.487 60.3939 139.872 58.5753M136.68 78.6831C135.326 89.5582 134.114 100.447 132.78 111.344C132.752 111.57 131.474 117.386 132.108 116.096C133.232 113.808 134.038 111.333 134.978 108.968C139.516 97.5517 143.888 86.062 147.957 74.4681M136.68 78.6831C137.508 72.0334 138.389 65.3887 139.385 58.7499M139.872 58.5753C139.744 58.4312 139.612 58.2888 139.476 58.1479M139.872 58.5753C139.71 58.6348 139.547 58.6931 139.385 58.7499M139.872 58.5753C141.59 57.946 143.328 57.1648 145.114 56.2738C148.055 54.8067 151.037 53.4989 153.967 52.0095C157.56 50.1832 155.205 52.6082 154.395 55.1773C154.171 55.8873 153.945 56.597 153.719 57.3061M139.476 58.1479C138.703 57.3502 137.798 56.5998 136.809 55.8474C134.417 54.0273 131.005 51.9907 127.834 52.4969C126.497 52.7103 120.886 57.6325 122.766 58.4364C128.727 60.9855 133.969 60.646 139.385 58.7499M139.476 58.1479C139.445 58.3486 139.415 58.5492 139.385 58.7499M139.476 58.1479C139.796 56.0301 140.127 53.9129 140.473 51.7963C141.037 48.3441 144.148 23.8298 152.074 28.891C157.49 32.3492 161.535 37.0994 164.153 42.6224M153.719 57.3061C151.882 63.0544 149.956 68.7738 147.957 74.4681M153.719 57.3061C152.265 58.8192 150.716 60.2381 149.021 61.5128C146.434 63.4593 143.901 65.1077 142.274 68.0006C140.052 71.9526 143.93 73.949 147.617 74.4275C147.73 74.4422 147.844 74.4557 147.957 74.4681M153.719 57.3061C155.468 55.4853 157.079 53.5282 158.638 51.5222C160.751 48.8026 162.502 45.7607 164.153 42.6224M147.957 74.4681C157.469 75.502 167.839 68.2916 167.705 58.4669C167.629 52.8279 166.432 47.4321 164.153 42.6224M164.153 42.6224C168.047 35.2172 171.382 27.2752 177.597 21.7636C178.815 20.6832 179.947 19.6642 180.894 18.3217C181.914 16.8761 184.497 12.6553 184.497 14.4229C184.497 16.164 183.821 18.1669 183.642 19.9056C183.116 25.0016 183.164 30.1236 182.757 35.2265C182.228 41.8492 181.332 48.5705 180.32 55.2254M180.32 55.2254C179.875 58.151 179.408 61.0637 178.94 63.9496C178.284 67.9966 178.129 73.6499 176.498 77.4125C175.219 80.3631 175.981 73.9758 176.071 73.1482C176.729 67.0918 177.853 60.8408 180.32 55.2254ZM180.32 55.2254C181.041 53.5847 181.876 51.9981 182.848 50.4866C183.819 48.9772 183.443 48.9164 185.016 48.5677C185.875 48.3772 187.723 47.3379 188.008 48.9027C188.574 52.0095 187.362 55.4002 187.061 58.4669C186.606 63.1061 186.79 68.0368 186.97 72.6913C187.149 77.3534 189.414 81.9453 194.083 77.4125C195.809 75.7374 197.126 73.584 198.178 71.2279M198.178 71.2279C199.934 67.2945 200.951 62.7962 201.899 59.0152C202.813 55.3646 204.34 51.7387 205.074 48.0803C205.441 46.25 205.842 45.8568 203.73 45.8568C202.133 45.8568 201.121 45.667 200.128 47.0752C196.521 52.1894 194.947 56.5922 195.732 62.853C196.049 65.3828 196.853 68.43 198.178 71.2279ZM198.178 71.2279C200.315 75.7409 203.807 79.6056 208.798 79.6056C214.33 79.6056 215.77 72.5007 216.605 68.3816L216.614 68.3357C217.392 64.4984 218.026 60.7292 218.537 56.8526C218.769 55.0934 218.78 53.5965 218.263 51.8877C218.191 51.6516 217.344 49.7556 218.049 49.7556C219.569 49.7556 221.631 50.9277 223.208 51.2176C224.177 51.3957 225.25 51.2632 226.3 50.9834M226.3 50.9834C227.471 50.6717 228.615 50.177 229.559 49.7251C230.038 49.4956 234.268 48.0499 232.856 48.0499C230.436 48.0499 227.841 48.2766 226.506 50.6084C226.436 50.7297 226.368 50.8548 226.3 50.9834ZM226.3 50.9834C222.957 57.3786 222.421 72.6388 230.658 75.189C233.084 75.9404 235.087 76.3833 237.191 74.793C238.964 73.4532 237.418 73.6873 236.397 74.3666" stroke="black" stroke-width="5" stroke-linecap="round"/>
</svg>
